<?xml version="1.0" encoding="UTF-8" standalone="no"?>
<svg
   xmlns:dc="http://purl.org/dc/elements/1.1/"
   xmlns:cc="http://creativecommons.org/ns#"
   xmlns:rdf="http://www.w3.org/1999/02/22-rdf-syntax-ns#"
   xmlns:svg="http://www.w3.org/2000/svg"
   xmlns="http://www.w3.org/2000/svg"
   xmlns:sodipodi="http://sodipodi.sourceforge.net/DTD/sodipodi-0.dtd"
   xmlns:inkscape="http://www.inkscape.org/namespaces/inkscape"
   id="svg8"
   version="1.1"
   viewBox="0 0 504.5 347"
   height="347mm"
   width="504.5mm"
   sodipodi:docname="cover.svg"
   inkscape:version="0.92.4 (5da689c313, 2019-01-14)">
  <sodipodi:namedview
     pagecolor="#ffffff"
     bordercolor="#666666"
     borderopacity="1"
     objecttolerance="10"
     gridtolerance="10"
     guidetolerance="10"
     inkscape:pageopacity="0"
     inkscape:pageshadow="2"
     inkscape:window-width="2560"
     inkscape:window-height="1379"
     id="namedview39"
     showgrid="false"
     inkscape:document-units="mm"
     borderlayer="true"
     inkscape:showpageshadow="false"
     inkscape:pagecheckerboard="true"
     inkscape:zoom="0.73"
     inkscape:cx="953.38583"
     inkscape:cy="655.74803"
     inkscape:window-x="0"
     inkscape:window-y="0"
     inkscape:window-maximized="1"
     inkscape:current-layer="svg8" />
  <defs
     id="defs2" />
  <metadata
     id="metadata5">
    <rdf:RDF>
      <cc:Work
         rdf:about="">
        <dc:format>image/svg+xml</dc:format>
        <dc:type
           rdf:resource="http://purl.org/dc/dcmitype/StillImage" />
        <dc:title></dc:title>
      </cc:Work>
    </rdf:RDF>
  </metadata>
  <g
     id="layer5">
    <rect
       y="0.056735124"
       x="0.056753233"
       height="346.88651"
       width="504.38647"
       id="rect883"
       style="fill:#9bbc0f;fill-opacity:1;stroke:#ffde59;stroke-width:0.11350647;stroke-opacity:1" />
  </g>
  <g
     style="display:inline"
     id="layer6">
    <g
       transform="translate(0,50)"
       style="display:inline"
       id="layer1">
      <text
         id="text817"
         y="265.27402"
         x="350.31952"
         style="font-style:normal;font-weight:normal;font-size:3.59011531px;line-height:1.25;font-family:sans-serif;letter-spacing:0px;word-spacing:0px;fill:#000000;fill-opacity:1;stroke:none;stroke-width:0.08975288"
         xml:space="preserve"><tspan
           style="font-style:normal;font-variant:normal;font-weight:normal;font-stretch:normal;font-size:6.70154953px;font-family:'Early GameBoy';-inkscape-font-specification:'Early GameBoy';stroke-width:0.08975288"
           y="265.27402"
           x="350.31952"
           id="tspan815">PyGameBoy</tspan></text>
    </g>
    <g
       transform="translate(0,50)"
       style="display:inline"
       id="layer2">
      <text
         id="text822"
         y="141.31502"
         x="330.04959"
         style="font-style:normal;font-variant:normal;font-weight:normal;font-stretch:normal;font-size:4.58611107px;line-height:1.25;font-family:'Early GameBoy';-inkscape-font-specification:'Early GameBoy';letter-spacing:0px;word-spacing:0px;fill:#000000;fill-opacity:1;stroke:none;stroke-width:0.26458332"
         xml:space="preserve"><tspan
           id="tspan910"
           style="font-style:normal;font-variant:normal;font-weight:normal;font-stretch:normal;font-size:4.58611107px;font-family:'Early GameBoy';-inkscape-font-specification:'Early GameBoy';stroke-width:0.26458332"
           y="141.31502"
           x="330.04959">Programming Manual v1.1</tspan></text>
    </g>
    <g
       style="display:inline"
       transform="translate(0,50)"
       id="layer3">
      <g
         transform="matrix(0.13525368,0,0,0.13525368,299.30472,105.69376)"
         id="g908">
        <polyline
           points="1174.2,20.4 1174.2,27.6 1158.2,37.5 1174.2,37.5 1174.2,44.6 1151.3,44.6 1151.3,37.5 1167.3,27.5 1151.3,27.5   1151.3,20.4 1174.2,20.4 "
           id="polyline853" />
        <polyline
           points="1171.9,83.1 1171.9,90 1168.7,90 1168.7,93.8 1166.5,93.8 1166.5,90 1151.3,90 1151.3,83.1 1166.5,83.1   1166.5,79.4 1168.7,79.4 1168.7,83.1 1171.9,83.1 "
           id="polyline855" />
        <rect
           x="1151.3"
           y="48.5"
           width="15.2"
           height="6.9000001"
           id="rect857" />
        <rect
           x="1169.5"
           y="48.5"
           width="4.6999998"
           height="6.9000001"
           id="rect859" />
        <path
           d="m 1167.6,169.5 c 0,-5.6 -3.8,-10.1 -8.6,-10.1 -4.7,0 -8.6,4.5 -8.6,10.1 0,5.6 3.9,10.1 8.6,10.1 4.7,-0.1 8.6,-4.6 8.6,-10.1 m -8.6,2.7 c 0,0 -2.3,0 -3.2,0 -2.4,0 -3.4,-1.4 -3.4,-2.8 0,-1.4 1,-2.8 3.4,-2.8 0.9,0 3.3,0 3.3,0 0,0 2.3,0 3.2,0 2.4,0 3.4,1.4 3.4,2.8 0,1.4 -1,2.8 -3.4,2.8 -1,0 -2.7,0 -3.3,0 z"
           id="path861" />
        <path
           d="m 1159,150.4 c 0,0 1.9,0 2.7,0 2.4,0 3,-1.6 3,-2.7 0,-1.1 -0.6,-2.7 -3,-2.7 -0.8,0 -2.7,0 -2.7,0 0,0 -1.9,0 -2.7,0 -2.4,0 -3,1.6 -3,2.7 0,1.1 0.6,2.7 3,2.7 0.9,0 2.7,0 2.7,0 m 15.2,-0.1 v 6.8 h -22.9 v -6.9 c 0,0 0.7,0 0.9,0 -1.7,-2.6 -1.7,-5.6 -0.6,-8 0.3,-0.6 2.2,-4.7 7.6,-4.7 4,0 8.4,3.8 8,8.8 -0.2,1.6 -0.8,2.8 -1.4,3.9 3.5,0.1 8.4,0.1 8.4,0.1 z"
           id="path863" />
        <path
           d="m 1167.2,71.6 c 0.1,2.6 -1.6,7.8 -7.7,7.8 -1.1,0 -8.3,0 -8.3,0 v -6.9 c 0,0 9.1,0 10,0 1.3,0 2.8,-1.3 2.8,-3.2 0,-1.9 -1.4,-3.3 -2.8,-3.3 -0.7,0 -10,0 -10,0 v -6.9 h 15.2 V 66 c 0,0 -1.2,0 -1.6,0 1.4,1.4 2.4,3.3 2.4,5.6"
           id="path865" />
        <path
           d="m 1167.2,127.7 c 0.1,2.6 -1.6,7.8 -7.7,7.8 -1.1,0 -8.3,0 -8.3,0 v -6.9 c 0,0 9.1,0 10,0 1.3,0 2.8,-1.3 2.8,-3.1 0,-1.9 -1.4,-3.3 -2.8,-3.3 -0.7,0 -10,0 -10,0 v -6.8 h 15.2 v 6.8 c 0,0 -1.2,0 -1.6,0 1.4,1.3 2.4,3.2 2.4,5.5"
           id="path867" />
        <path
           d="m 1156.6,105.9 c 0,0 -0.1,0 -0.9,0 -2.8,0 -3.4,-1.8 -3.4,-2.9 0,-1 0.6,-2.9 3.4,-2.9 0.8,0 3.1,0 3.1,0 0,0 0,13 0,13 4.7,0 8.6,-4.6 8.6,-10.2 0,-5.6 -3.8,-10.2 -8.6,-10.2 -4.8,0 -8.6,4.6 -8.6,10.2 0,4.7 2.6,8.6 6.2,9.8 v -6.8 m 4.8,-5.7 c 1.3,0 2.2,0 3,0.5 0.9,0.5 1.4,1.5 1.4,2.4 0,0.9 -0.4,1.9 -1.4,2.4 -0.8,0.4 -1.7,0.4 -3,0.4 z"
           id="path869" />
        <path
           d="m 1170.8,180 v 0.5 c 0,0.5 0.2,0.8 0.6,0.8 0.4,0 0.6,-0.3 0.6,-0.9 V 180 h -1.2 m -0.3,3.4 c -1.6,0 -2.9,-1.3 -2.9,-2.9 0,-1.6 1.3,-2.9 2.9,-2.9 1.6,0 2.8,1.3 2.8,2.9 0,1.6 -1.2,2.9 -2.8,2.9 z m 3.5,-2.9 c 0,-1.9 -1.6,-3.5 -3.5,-3.5 -2,0 -3.5,1.6 -3.5,3.5 0,2 1.6,3.5 3.5,3.5 1.9,0.1 3.5,-1.5 3.5,-3.5 z m -1.5,0.1 c 0,1.1 -0.4,1.7 -1.1,1.7 -0.5,0 -0.9,-0.3 -1.1,-0.9 l -1.7,0.9 v -1 l 1.6,-0.7 V 180 h -1.6 v -0.9 h 3.9 z"
           id="path871" />
        <path
           d="M 1144.3,174.4 V 25.1 c 0,-10.2 8.3,-18.4 18.4,-18.4 10.1,0 18.4,8.3 18.4,18.4 v 149.3 c 0,10.2 -8.3,18.5 -18.4,18.5 -10.2,0 -18.4,-8.3 -18.4,-18.5 m 42.7,0 V 25.1 c 0,-13.4 -10.9,-24.3 -24.3,-24.3 -13.4,0 -24.3,10.8 -24.3,24.3 v 149.3 c 0,13.5 10.9,24.3 24.3,24.3 13.4,0.1 24.3,-10.8 24.3,-24.3 z"
           id="path873" />
        <path
           d="m 215.7,100.6 16.4,-36.6 7.2,36.6 H 215.7 M 447.8,4.9 403.3,108.4 383.6,4.9 H 345.3 L 290.8,157.4 265.3,4.9 h -47.8 l -72.4,164.4 10.8,-68.7 H 84 L 78.3,136 h 30.2 L 105,154.9 C 87.8,162 58.6,159.3 46.1,136.9 38.2,122.7 30.8,91.1 64.1,62 91.3,38.3 138.3,34 165.4,46.4 c 0,0 3.4,-19.9 6,-38.3 -52.1,-18 -92.6,-3 -119.7,13.8 -37.1,22.7 -54.9,57.6 -50,105 5.5,54.9 76.6,89.6 136.9,54.6 0.7,-0.3 1,-0.6 1.6,-0.7 l -5.8,12.8 h 40.5 l 25.5,-56.5 h 44.8 l 9.8,56.5 h 66 L 354.6,88.1 382.2,193.6 H 408 l 44.3,-116.8 17.5,117.5 h 38.7 L 494.4,4.9 Z"
           id="path875" />
        <polyline
           points="508.5,194.4 616.6,194.4 623.1,154 555.5,154 560.8,120.3 619.7,120.3 626.1,79.8 566.7,79.8 571.8,46.3   639.5,46.3 645.9,5.8 538.6,5.8 508.5,194.4 "
           id="polyline877" />
        <polyline
           points="1043.8,65.1 1019.6,3.6 975.2,3.6 1021,103.1 1006.8,192.2 1045.7,192.2 1057.5,113.4 1127.4,3.6 1082,3.6   1043.8,65.1 "
           id="polyline879" />
        <path
           d="m 952.4,117.5 c -10.4,31.2 -35.6,49.4 -56.1,40.1 -20.4,-9.1 -28.7,-42 -18.2,-73.4 10.5,-31.5 35.6,-49.3 56,-40.2 20.5,9.2 28.8,42.1 18.3,73.5 M 937.3,6.6 c -43,-9.9 -87.7,24.3 -99.8,76.4 -11.9,52.2 13.1,102.5 56,112.5 43,9.8 87.6,-24.4 99.8,-76.5 11.9,-52.2 -13.2,-102.5 -56,-112.4 z"
           id="path881" />
        <path
           d="m 761.3,82 c -21.3,0 -26.8,0 -26.8,0 l 5.9,-35 c 0,0 0.8,0 25.2,0 27.4,0 21.8,35 -4.3,35 m -4.7,76.2 c -21.4,0 -34.2,0 -34.2,0 l 6,-37.6 c 0,0 8.1,0 32.4,0 30.9,0 30,37.6 -4.2,37.6 z M 779.3,7.1 c -20.9,-0.3 -72.6,0 -72.6,0 h 0.4 l -30,187.3 c 0,0 62.1,0 87.3,0 36,0 88.5,-52.9 40.6,-96.1 49,-50.9 0.4,-90.6 -25.7,-91.2 z"
           id="path883" />
      </g>
    </g>
    <g
       style="display:inline"
       id="layer4">
      <text
         id="text880"
         y="44.571266"
         x="363.10236"
         style="font-style:normal;font-weight:normal;font-size:10.58333302px;line-height:1.25;font-family:sans-serif;letter-spacing:0px;word-spacing:0px;fill:#000000;fill-opacity:1;stroke:none;stroke-width:0.26458332"
         xml:space="preserve"><tspan
           style="font-style:normal;font-variant:normal;font-weight:normal;font-stretch:normal;font-family:'Early GameBoy';-inkscape-font-specification:'Early GameBoy';stroke-width:0.26458332"
           y="44.571266"
           x="363.10236"
           id="tspan878">&lt;&lt;&lt;</tspan></text>
    </g>
  </g>
  <g
     id="g875"
     style="display:inline"
     transform="translate(0,50)">
    <text
       transform="rotate(-90)"
       xml:space="preserve"
       style="font-style:normal;font-weight:normal;font-size:3.59011531px;line-height:1.25;font-family:sans-serif;letter-spacing:0px;word-spacing:0px;fill:#000000;fill-opacity:1;stroke:none;stroke-width:0.08975288"
       x="-158.26428"
       y="253.97308"
       id="text873"><tspan
         id="tspan871"
         x="-158.26428"
         y="253.97308"
         style="font-style:normal;font-variant:normal;font-weight:normal;font-stretch:normal;font-size:6.70154953px;font-family:'Early GameBoy';-inkscape-font-specification:'Early GameBoy';stroke-width:0.08975288">&lt; PyGameBoy</tspan></text>
  </g>
  <g
     id="layer7" />
</svg>
